<svg xmlns="http://www.w3.org/2000/svg" version="1.1" width="95px" height="79px" style="shape-rendering:geometricPrecision; text-rendering:geometricPrecision; image-rendering:optimizeQuality; fill-rule:evenodd; clip-rule:evenodd" xmlns:xlink="http://www.w3.org/1999/xlink">
<g><path style="opacity:0.844" fill="#fba242" d="M 50.5,5.5 C 47.8333,5.5 45.1667,5.5 42.5,5.5C 45.2179,0.200823 47.8845,0.200823 50.5,5.5 Z"/></g>
<g><path style="opacity:0.87" fill="#fc9640" d="M 42.5,5.5 C 45.1667,5.5 47.8333,5.5 50.5,5.5C 51.3382,5.84171 51.6716,6.50838 51.5,7.5C 48.1667,7.5 44.8333,7.5 41.5,7.5C 41.8333,6.83333 42.1667,6.16667 42.5,5.5 Z"/></g>
<g><path style="opacity:0.853" fill="#fc8a3e" d="M 41.5,7.5 C 44.8333,7.5 48.1667,7.5 51.5,7.5C 52.3382,7.84171 52.6716,8.50838 52.5,9.5C 48.5,9.5 44.5,9.5 40.5,9.5C 40.8333,8.83333 41.1667,8.16667 41.5,7.5 Z"/></g>
<g><path style="opacity:0.814" fill="#fc803c" d="M 40.5,9.5 C 44.5,9.5 48.5,9.5 52.5,9.5C 53.3382,9.84171 53.6716,10.5084 53.5,11.5C 48.6266,11.14 43.96,11.14 39.5,11.5C 39.8333,10.8333 40.1667,10.1667 40.5,9.5 Z"/></g>
<g><path style="opacity:0.825" fill="#fd7439" d="M 53.5,11.5 C 53.5,11.8333 53.5,12.1667 53.5,12.5C 49.03,13.4861 44.3633,13.8195 39.5,13.5C 39.5,12.8333 39.5,12.1667 39.5,11.5C 43.96,11.14 48.6266,11.14 53.5,11.5 Z"/></g>
<g><path style="opacity:0.693" fill="#fd6537" d="M 53.5,12.5 C 54.4511,13.9187 54.7845,15.5853 54.5,17.5C 52.8333,17.5 51.1667,17.5 49.5,17.5C 48.2548,14.08 46.5881,13.7466 44.5,16.5C 42.8333,16.5 41.1667,16.5 39.5,16.5C 39.5,15.5 39.5,14.5 39.5,13.5C 44.3633,13.8195 49.03,13.4861 53.5,12.5 Z"/></g>
<g><path style="opacity:0.596" fill="#fd5133" d="M 39.5,16.5 C 41.1667,16.5 42.8333,16.5 44.5,16.5C 45.6069,18.8466 47.2736,19.18 49.5,17.5C 51.1667,17.5 52.8333,17.5 54.5,17.5C 54.5,18.1667 54.5,18.8333 54.5,19.5C 49.5,19.5 44.5,19.5 39.5,19.5C 39.5,18.5 39.5,17.5 39.5,16.5 Z"/></g>
<g><path style="opacity:0.677" fill="#fe4030" d="M 39.5,19.5 C 44.5,19.5 49.5,19.5 54.5,19.5C 54.5,21.1667 54.5,22.8333 54.5,24.5C 52.5,24.5 50.5,24.5 48.5,24.5C 47.8166,22.8235 46.4832,22.1568 44.5,22.5C 42.8333,22.5 41.1667,22.5 39.5,22.5C 39.5,21.5 39.5,20.5 39.5,19.5 Z"/></g>
<g><path style="opacity:0.606" fill="#fb3130" d="M 39.5,22.5 C 41.1667,22.5 42.8333,22.5 44.5,22.5C 45.1834,24.1765 46.5168,24.8432 48.5,24.5C 50.5,24.5 52.5,24.5 54.5,24.5C 54.5,24.8333 54.5,25.1667 54.5,25.5C 49.5,25.5 44.5,25.5 39.5,25.5C 39.5,24.5 39.5,23.5 39.5,22.5 Z"/></g>
<g><path style="opacity:0.493" fill="#fa2e30" d="M 37.5,25.5 C 35.8333,25.5 34.1667,25.5 32.5,25.5C 33.4006,23.2729 35.0672,22.2729 37.5,22.5C 37.5,23.5 37.5,24.5 37.5,25.5 Z"/></g>
<g><path style="opacity:0.631" fill="#f82f30" d="M 61.5,25.5 C 59.8333,25.5 58.1667,25.5 56.5,25.5C 56.281,24.325 56.6143,23.325 57.5,22.5C 58.9014,23.5207 60.2347,24.5207 61.5,25.5 Z"/></g>
<g><path style="opacity:0.651" fill="#e42c45" d="M 32.5,25.5 C 34.1667,25.5 35.8333,25.5 37.5,25.5C 37.5,26.1667 37.5,26.8333 37.5,27.5C 35.2646,27.7947 33.2646,27.4614 31.5,26.5C 31.5,25.8333 31.8333,25.5 32.5,25.5 Z"/></g>
<g><path style="opacity:0.653" fill="#e42c44" d="M 39.5,25.5 C 44.5,25.5 49.5,25.5 54.5,25.5C 54.5,26.1667 54.5,26.8333 54.5,27.5C 49.5,27.5 44.5,27.5 39.5,27.5C 39.5,26.8333 39.5,26.1667 39.5,25.5 Z"/></g>
<g><path style="opacity:0.651" fill="#e32b45" d="M 56.5,25.5 C 58.1667,25.5 59.8333,25.5 61.5,25.5C 61.8333,26.1667 62.1667,26.8333 62.5,27.5C 60.5,27.5 58.5,27.5 56.5,27.5C 56.5,26.8333 56.5,26.1667 56.5,25.5 Z"/></g>
<g><path style="opacity:0.592" fill="#d32c54" d="M 31.5,26.5 C 33.2646,27.4614 35.2646,27.7947 37.5,27.5C 37.5,27.8333 37.5,28.1667 37.5,28.5C 35.1667,28.5 32.8333,28.5 30.5,28.5C 30.3284,27.5084 30.6618,26.8417 31.5,26.5 Z"/></g>
<g><path style="opacity:0.671" fill="#cb2b5c" d="M 39.5,27.5 C 44.5,27.5 49.5,27.5 54.5,27.5C 54.5,28.1667 54.5,28.8333 54.5,29.5C 49.5,29.5 44.5,29.5 39.5,29.5C 39.5,28.8333 39.5,28.1667 39.5,27.5 Z"/></g>
<g><path style="opacity:0.671" fill="#cb2b5d" d="M 56.5,27.5 C 58.5,27.5 60.5,27.5 62.5,27.5C 63.3382,27.8417 63.6716,28.5084 63.5,29.5C 61.1667,29.5 58.8333,29.5 56.5,29.5C 56.5,28.8333 56.5,28.1667 56.5,27.5 Z"/></g>
<g><path style="opacity:0.678" fill="#bf2b68" d="M 30.5,28.5 C 32.8333,28.5 35.1667,28.5 37.5,28.5C 37.5,29.1667 37.5,29.8333 37.5,30.5C 34.8333,30.5 32.1667,30.5 29.5,30.5C 29.3284,29.5084 29.6618,28.8417 30.5,28.5 Z"/></g>
<g><path style="opacity:0.686" fill="#b32a73" d="M 39.5,29.5 C 44.5,29.5 49.5,29.5 54.5,29.5C 54.5,30.1667 54.5,30.8333 54.5,31.5C 49.5,31.5 44.5,31.5 39.5,31.5C 39.5,30.8333 39.5,30.1667 39.5,29.5 Z"/></g>
<g><path style="opacity:0.687" fill="#b32a74" d="M 56.5,29.5 C 58.8333,29.5 61.1667,29.5 63.5,29.5C 63.5,30.1667 63.5,30.8333 63.5,31.5C 61.1667,31.5 58.8333,31.5 56.5,31.5C 56.5,30.8333 56.5,30.1667 56.5,29.5 Z"/></g>
<g><path style="opacity:0.638" fill="#a62a80" d="M 29.5,30.5 C 32.1667,30.5 34.8333,30.5 37.5,30.5C 37.5,31.1667 37.5,31.8333 37.5,32.5C 34.8333,32.5 32.1667,32.5 29.5,32.5C 29.5,31.8333 29.5,31.1667 29.5,30.5 Z"/></g>
<g><path style="opacity:0.706" fill="#9a298b" d="M 39.5,31.5 C 44.5,31.5 49.5,31.5 54.5,31.5C 54.5,32.1667 54.5,32.8333 54.5,33.5C 49.5,33.5 44.5,33.5 39.5,33.5C 39.5,32.8333 39.5,32.1667 39.5,31.5 Z"/></g>
<g><path style="opacity:0.704" fill="#9a298b" d="M 56.5,31.5 C 58.8333,31.5 61.1667,31.5 63.5,31.5C 63.5,32.1667 63.5,32.8333 63.5,33.5C 61.1667,33.5 58.8333,33.5 56.5,33.5C 56.5,32.8333 56.5,32.1667 56.5,31.5 Z"/></g>
<g><path style="opacity:0.714" fill="#8d2997" d="M 29.5,32.5 C 32.1667,32.5 34.8333,32.5 37.5,32.5C 37.5,33.1667 37.5,33.8333 37.5,34.5C 34.8333,34.5 32.1667,34.5 29.5,34.5C 29.5,33.8333 29.5,33.1667 29.5,32.5 Z"/></g>
<g><path style="opacity:0.724" fill="#8128a3" d="M 39.5,33.5 C 44.5,33.5 49.5,33.5 54.5,33.5C 54.5,34.1667 54.5,34.8333 54.5,35.5C 49.5,35.5 44.5,35.5 39.5,35.5C 39.5,34.8333 39.5,34.1667 39.5,33.5 Z"/></g>
<g><path style="opacity:0.723" fill="#7d28a7" d="M 56.5,33.5 C 58.8333,33.5 61.1667,33.5 63.5,33.5C 63.5,34.5 63.5,35.5 63.5,36.5C 61.1667,36.5 58.8333,36.5 56.5,36.5C 56.5,35.5 56.5,34.5 56.5,33.5 Z"/></g>
<g><path style="opacity:0.733" fill="#7528af" d="M 29.5,34.5 C 32.1667,34.5 34.8333,34.5 37.5,34.5C 37.5,35.1667 37.5,35.8333 37.5,36.5C 34.8333,36.5 32.1667,36.5 29.5,36.5C 29.5,35.8333 29.5,35.1667 29.5,34.5 Z"/></g>
<g><path style="opacity:0.65" fill="#6128c1" d="M 29.5,36.5 C 32.1667,36.5 34.8333,36.5 37.5,36.5C 36.6661,37.7479 35.3328,38.4146 33.5,38.5C 31.6672,38.4146 30.3339,37.7479 29.5,36.5 Z"/></g>
<g><path style="opacity:0.698" fill="#6927ba" d="M 39.5,35.5 C 44.5,35.5 49.5,35.5 54.5,35.5C 54.5,36.1667 54.5,36.8333 54.5,37.5C 49.5,37.5 44.5,37.5 39.5,37.5C 39.5,36.8333 39.5,36.1667 39.5,35.5 Z"/></g>
<g><path style="opacity:0.469" fill="#5d28c5" d="M 56.5,36.5 C 58.8333,36.5 61.1667,36.5 63.5,36.5C 62.8478,37.7251 61.6811,38.3917 60,38.5C 58.3189,38.3917 57.1522,37.7251 56.5,36.5 Z"/></g>
<g><path style="opacity:0.734" fill="#5227d1" d="M 39.5,37.5 C 44.5,37.5 49.5,37.5 54.5,37.5C 53.3285,38.3446 51.9952,39.0113 50.5,39.5C 47.8333,39.5 45.1667,39.5 42.5,39.5C 41.5,38.8333 40.5,38.1667 39.5,37.5 Z"/></g>
<g><path style="opacity:0.741" fill="#3f27e2" d="M 42.5,39.5 C 45.1667,39.5 47.8333,39.5 50.5,39.5C 50.5,39.8333 50.5,40.1667 50.5,40.5C 47.9407,40.1984 45.6074,40.5318 43.5,41.5C 42.6618,41.1583 42.3284,40.4916 42.5,39.5 Z"/></g>
<g><path style="opacity:0.788" fill="#2b26f5" d="M 50.5,40.5 C 49.8478,41.7251 48.6811,42.3917 47,42.5C 45.6153,42.4857 44.4486,42.1524 43.5,41.5C 45.6074,40.5318 47.9407,40.1984 50.5,40.5 Z"/></g>
<g><path style="opacity:0.87" fill="#4f51b3" d="M 4.5,54.5 C 8.91133,54.021 13.078,54.6876 17,56.5C 17.3446,58.2009 16.6779,59.5342 15,60.5C 11.9477,58.1491 8.78103,57.9824 5.5,60C 9.61207,60.6216 13.6121,61.6216 17.5,63C 18.8333,65.3333 18.8333,67.6667 17.5,70C 11.8834,73.3859 6.3834,73.2192 1,69.5C 0.543916,68.2559 1.04392,67.4226 2.5,67C 5.86481,67.3949 9.19815,67.2282 12.5,66.5C 8.30326,66.0308 4.46992,64.6974 1,62.5C -0.219896,58.7069 0.94677,56.0402 4.5,54.5 Z"/></g>
<g><path style="opacity:0.924" fill="#4f51b2" d="M 21.5,54.5 C 22.8333,54.5 24.1667,54.5 25.5,54.5C 25.5,56.5 25.5,58.5 25.5,60.5C 29.8333,60.5 34.1667,60.5 38.5,60.5C 38.5,58.5 38.5,56.5 38.5,54.5C 40.1667,54.5 41.8333,54.5 43.5,54.5C 43.5,60.1667 43.5,65.8333 43.5,71.5C 41.8333,71.5 40.1667,71.5 38.5,71.5C 38.5,69.5 38.5,67.5 38.5,65.5C 34.1667,65.5 29.8333,65.5 25.5,65.5C 25.5,67.5 25.5,69.5 25.5,71.5C 24.1667,71.5 22.8333,71.5 21.5,71.5C 21.5,65.8333 21.5,60.1667 21.5,54.5 Z"/></g>
<g><path style="opacity:0.929" fill="#4f51b3" d="M 46.5,54.5 C 48.1667,54.5 49.8333,54.5 51.5,54.5C 51.5,60.1667 51.5,65.8333 51.5,71.5C 49.8333,71.5 48.1667,71.5 46.5,71.5C 46.5,65.8333 46.5,60.1667 46.5,54.5 Z"/></g>
<g><path style="opacity:0.92" fill="#4f51b3" d="M 54.5,54.5 C 67.5,54.5 80.5,54.5 93.5,54.5C 93.5,56.1667 93.5,57.8333 93.5,59.5C 90.8333,59.5 88.1667,59.5 85.5,59.5C 85.5,63.5 85.5,67.5 85.5,71.5C 83.8333,71.5 82.1667,71.5 80.5,71.5C 80.5,67.5 80.5,63.5 80.5,59.5C 73.628,58.8138 66.628,58.9805 59.5,60C 63.1516,60.4986 66.8183,60.6653 70.5,60.5C 70.5,62.1667 70.5,63.8333 70.5,65.5C 66.8333,65.5 63.1667,65.5 59.5,65.5C 59.5,67.5 59.5,69.5 59.5,71.5C 57.8333,71.5 56.1667,71.5 54.5,71.5C 54.5,65.8333 54.5,60.1667 54.5,54.5 Z"/></g>
</svg>
